<!-- icon666.com - MILLIONS vector ICONS FREE --><svg version="1.1" id="Capa_1" xmlns="http://www.w3.org/2000/svg" xmlns:xlink="http://www.w3.org/1999/xlink" x="0px" y="0px" viewBox="0 0 377.744 377.745" style="enable-background:new 0 0 377.744 377.745;" xml:space="preserve"><g><path d="M283.922,2.992c-1.836-2.448-4.895-4.284-8.566-1.836c-35.496,24.48-60.59,76.5-47.125,119.34 c7.957,25.092,41.615,28.764,33.049,58.752c-9.793,32.436-42.229,61.199-63.648,86.903c-7.957,9.792-37.944,38.557-45.289,11.628 c-1.836-6.12-3.672-13.464-7.956-17.748c-12.24-12.239-26.316-14.075-42.84-8.567c-30.6,9.792-66.096,47.124-68.544,81.396 c-0.612,0.612-0.612,1.225-0.612,1.836c-1.224,47.124,61.812,45.9,94.248,40.393c61.812-11.017,115.057-75.276,150.553-121.788 C326.15,188.428,398.979,42.16,283.922,2.992z"></path></g></svg>